{"title":"Chino Y Nacho Ft. Jay Sean - Bebe Bonita (h264/mp4)","uid":7103679,"size":175519685,"categoryP":"video","categoryS":"music_videos","magnet":"?xt=urn:btih:9f0defec52da4eda15225baba4b8f653013fc246&amp;dn=Chino+Y+Nacho+Ft.+Jay+Sean+-+Bebe+Bonita+%28h264%2Fmp4%29&amp;tr=udp%3A%2F%2Ftracker.openbittorrent.com%3A80&amp;tr=udp%3A%2F%2Fopen.demonii.com%3A1337&amp;tr=udp%3A%2F%2Ftracker.coppersurfer.tk%3A6969&amp;tr=udp%3A%2F%2Fexodus.desync.com%3A6969","seeders":1,"leechers":0,"uploader":"MusicVideos-HQ","files":1,"time":1331786853,"description":"General\n\nFormat : MPEG-4\nFormat profile : Base Media\nCodec ID : isom\nFile size : 167 MiB\nDuration : 4mn 33s\nOverall bit rate : 5 141 Kbps\nEncoded date : UTC 2012-03-15 00:47:15\nTagged date : UTC 2012-03-15 00:47:15\n\nVideo\nID : 1\nFormat : AVC\nFormat/Info : Advanced Video Codec\nFormat profile : &lt;a class=&quot;__cf_email__&quot; href=&quot;/cdn-cgi/l/email-protection&quot; data-cfemail=&quot;9dd5f4faf5ddd1aeb3ad&quot;&gt;[email&amp;#160;protected]&lt;/a&gt;&lt;script cf-hash='f9e31' type=&quot;text/javascript&quot;&gt;\n/* &lt;![CDATA[ */!function(){try{var t=&quot;currentScript&quot;in document?document.currentScript:function(){for(var t=document.getElementsByTagName(&quot;script&quot;),e=t.length;e--;)if(t[e].getAttribute(&quot;cf-hash&quot;))return t[e]}();if(t&amp;&amp;t.previousSibling){var e,r,n,i,c=t.previousSibling,a=c.getAttribute(&quot;data-cfemail&quot;);if(a){for(e=&quot;&quot;,r=parseInt(a.substr(0,2),16),n=2;a.length-n;n+=2)i=parseInt(a.substr(n,2),16)^r,e+=String.fromCharCode(i);e=document.createTextNode(e),c.parentNode.replaceChild(e,c)}}}catch(u){}}();/* ]]&gt; */&lt;/script&gt;\nFormat settings, CABAC : Yes\nFormat settings, ReFrames : 2 frames\nCodec ID : avc1\nCodec ID/Info : Advanced Video Coding\nDuration : 4mn 33s\nBit rate mode : Variable\nBit rate : 5 258 Kbps\nMaximum bit rate : 10.2 Mbps\nWidth : 640 pixels\nHeight : 480 pixels\nDisplay aspect ratio : 4:3\nFrame rate mode : Constant\nFrame rate : 23.976 fps\nColor space : YUV\nChroma subsampling : 4:2:0\nBit depth : 8 bits\nScan type : Progressive\nBits/(Pixel*Frame) : 0.714\nStream size : 165 MiB (99%)\n\n\nAudio\nID : 2\nFormat : AAC\nFormat/Info : Advanced Audio Codec\nFormat profile : LC\nCodec ID : 40\nDuration : 4mn 33s\nBit rate mode : Variable\nBit rate : 66.15 Kbps\nMaximum bit rate : 78.1 Kbps\nChannel(s) : 2 channels\nChannel positions : Front: L R\nSampling rate : 44.1 KHz\nCompression mode : Lossy\nStream size : 2.16 MiB (1%)\n","torrent":{"xt":"urn:btih:9f0defec52da4eda15225baba4b8f653013fc246","amp;dn":"Chino+Y+Nacho+Ft.+Jay+Sean+-+Bebe+Bonita+%28h264%2Fmp4%29","amp;tr":["udp%3A%2F%2Ftracker.openbittorrent.com%3A80","udp%3A%2F%2Fopen.demonii.com%3A1337","udp%3A%2F%2Ftracker.coppersurfer.tk%3A6969","udp%3A%2F%2Fexodus.desync.com%3A6969"],"infoHash":"9f0defec52da4eda15225baba4b8f653013fc246","infoHashBuffer":{"type":"Buffer","data":[159,13,239,236,82,218,78,218,21,34,91,171,164,184,246,83,1,63,194,70]},"announce":[],"urlList":[]}}